<svg xmlns="http://www.w3.org/2000/svg" viewBox="0 0 512 512">
  <!-- maskable用: 全面ブリード台座、主要素は中央80%セーフゾーン内。 -->
  <rect fill="#1C1B1A" x="0" y="0" width="512" height="512"/>
  <g transform="translate(112 88) scale(6.4)">
    <g stroke="#CECDC3" fill="#CECDC3" stroke-width="1.5" stroke-linecap="round" stroke-linejoin="round">
      <path d="M22 10c10.5 1 16.5 8 16 29H15c0-9 10-6.5 8-21"/>
      <path d="M24 18c.38 2.91-5.55 7.37-8 9-3 2-2.82 4.34-5 4-1.042-.94 1.41-3.04 0-3-1 0 .19 1.23-1 2-1 0-4.003 1-4-4 0-2 6-12 6-12s1.89-1.9 2-3.5c-.73-.994-.5-2-.5-3 1-1 3 2.5 3 2.5h2s.78-1.992 2.5-3c1 0 1 3 1 3"/>
      <path fill="#1C1B1A" stroke="none" d="M9.5 25.5a.5.5 0 1 1-1 0 .5.5 0 1 1 1 0m5.433-9.75a.5 1.5 30 1 1-.866-.5.5 1.5 30 1 1 .866.5"/>
    </g>
  </g>
  <circle cx="184" cy="394" r="21" fill="#3AA99F"/>
  <circle cx="256" cy="394" r="21" fill="#CE5D97"/>
  <circle cx="328" cy="394" r="21" fill="#8B7EC8"/>
</svg>
